<svg width="109" height="90" viewBox="0 0 109 90" fill="none" xmlns="http://www.w3.org/2000/svg">
<path fill-rule="evenodd" clip-rule="evenodd" d="M77.4536 11.1833C79.1489 11.6582 80.3217 13.2 80.329 14.9592C80.3732 15.0715 80.3738 15.1383 80.3738 15.1383C80.3738 15.1383 80.355 30.207 62.5128 44.0785C55.8796 49.2346 50.0508 57.3403 47.8409 65.2425C47.4084 66.7699 46.1074 67.8912 44.5344 68.0979C42.9608 68.3026 41.4154 67.5534 40.6044 66.1898C36.0451 58.2604 32.1788 45.3129 40.8655 30.2493C49.3324 15.5694 64.7931 7.8926 77.4536 11.1833Z" fill="#6A412E"/>
<path fill-rule="evenodd" clip-rule="evenodd" d="M54.15 78.0664C52.4036 77.5858 51.1898 75.9999 51.1823 74.1879C51.1373 74.1244 51.1361 74.088 51.1361 74.088C51.1361 74.088 51.155 59.0192 68.9971 45.1478C75.6927 39.9426 81.568 31.7327 83.73 23.7602C84.1396 22.2724 85.3945 21.1721 86.9242 20.9608C88.4519 20.75 89.9588 21.4686 90.7553 22.7897C95.3815 30.6914 99.4233 43.7538 90.6444 58.977C82.1981 73.6211 66.7931 81.296 54.15 78.0664Z" fill="#6A412E"/>
<path fill-rule="evenodd" clip-rule="evenodd" d="M31.8562 77.7772C33.5962 77.7552 35.1102 76.5812 35.5682 74.9032C35.6442 74.7872 35.6642 74.7132 35.6642 74.7132C35.6642 74.7132 39.5462 60.1512 25.9022 42.1372C20.8462 35.4612 17.3222 26.1631 17.2102 17.9771C17.1802 16.3751 16.2022 14.9452 14.7182 14.3372C13.2362 13.7292 11.5341 14.0612 10.3881 15.1812C3.95413 21.6752 -3.06188 33.1571 1.41413 49.8912C5.79613 66.2772 18.7622 77.6992 31.8562 77.7772ZM40.9342 69.0232C42.4842 69.9112 43.7583 70.2832 45.5923 69.9712C44.8183 71.8212 43.6722 73.1892 42.5762 74.1612C42.0762 74.5552 41.3863 74.6092 40.8323 74.2972C40.2763 73.9872 39.9622 73.3712 40.0382 72.7392C40.0882 71.7312 40.3302 70.5332 40.9342 69.0232ZM47.8342 17.8551C33.3902 28.4471 33.2782 43.9952 32.6922 43.2212C19.0482 25.2051 22.6842 10.2051 22.6842 10.2051C22.6842 10.2051 22.7062 10.1231 22.7422 9.98914C23.2002 8.31114 24.7022 7.12715 26.4422 7.07715C34.2002 7.16915 41.9182 11.1831 47.8342 17.8551Z" fill="#3D2A22"/>
</svg>
